<svg xmlns="http://www.w3.org/2000/svg" viewBox="0 0 1200 760" role="img" aria-labelledby="title desc">
  <title id="title">DTC ecommerce conversion system</title>
  <desc id="desc">A structured product journey from desire and proof to purchase.</desc>
  <rect width="1200" height="760" fill="#161616"/>
  <g font-family="Arial, Helvetica, sans-serif">
    <text x="54" y="68" fill="#ffffff" font-size="16" font-weight="700">DTC CONVERSION JOURNEY</text>
    <text x="1000" y="68" fill="#9a9a9a" font-size="13">SYSTEM 02</text>
  </g>
  <line x1="54" y1="94" x2="1146" y2="94" stroke="#3a3a3a"/>
  <g transform="translate(54 126)">
    <rect width="1092" height="150" fill="#f26b46"/>
    <text x="28" y="42" fill="#171717" font-family="Arial, Helvetica, sans-serif" font-size="13" font-weight="700">01 / DESIRE</text>
    <text x="28" y="104" fill="#171717" font-family="Arial, Helvetica, sans-serif" font-size="54" font-weight="700">Make the product matter.</text>
    <circle cx="998" cy="75" r="52" fill="#ffa81c"/>
    <circle cx="998" cy="75" r="24" fill="#9f43d1"/>
  </g>
  <g transform="translate(54 300)" font-family="Arial, Helvetica, sans-serif">
    <rect width="348" height="180" fill="#f2f1ee"/>
    <text x="24" y="36" fill="#171717" font-size="13" font-weight="700">02 / PROOF</text>
    <rect x="24" y="62" width="210" height="14" fill="#171717"/>
    <rect x="24" y="88" width="282" height="8" fill="#b5b1aa"/>
    <rect x="24" y="108" width="250" height="8" fill="#b5b1aa"/>
    <g transform="translate(24 140)" fill="#9f43d1"><circle cx="8" cy="8" r="8"/><circle cx="34" cy="8" r="8"/><circle cx="60" cy="8" r="8"/></g>
    <rect x="372" width="348" height="180" fill="#9f43d1"/>
    <text x="396" y="36" fill="#ffffff" font-size="13" font-weight="700">03 / CONTEXT</text>
    <path d="M396 140 C450 72 526 68 578 128 C615 89 670 96 696 140Z" fill="#f26b46"/>
    <circle cx="618" cy="68" r="28" fill="#ffa81c"/>
    <rect x="744" width="348" height="180" fill="#ffffff"/>
    <text x="768" y="36" fill="#171717" font-size="13" font-weight="700">04 / COMPARE</text>
    <line x1="768" y1="66" x2="1068" y2="66" stroke="#dedbd6"/>
    <line x1="768" y1="98" x2="1068" y2="98" stroke="#dedbd6"/>
    <line x1="768" y1="130" x2="1068" y2="130" stroke="#dedbd6"/>
    <rect x="976" y="74" width="66" height="16" fill="#ffa81c"/>
    <rect x="924" y="106" width="118" height="16" fill="#9f43d1"/>
  </g>
  <g transform="translate(54 504)" font-family="Arial, Helvetica, sans-serif">
    <rect width="720" height="188" fill="#242424" stroke="#3a3a3a"/>
    <text x="24" y="38" fill="#ffffff" font-size="13" font-weight="700">05 / SOCIAL PROOF</text>
    <text x="24" y="93" fill="#ffffff" font-size="30">“Clear enough to choose.”</text>
    <text x="24" y="132" fill="#9a9a9a" font-size="13">Review architecture / Detail / Confidence</text>
    <rect x="744" width="348" height="188" fill="#ffa81c"/>
    <text x="768" y="38" fill="#171717" font-size="13" font-weight="700">06 / ACTION</text>
    <text x="768" y="92" fill="#171717" font-size="31" font-weight="700">Add to cart</text>
    <line x1="768" y1="124" x2="1048" y2="124" stroke="#171717"/>
    <text x="768" y="154" fill="#171717" font-size="13">One decision. No friction.</text>
  </g>
</svg>
