<svg xmlns="http://www.w3.org/2000/svg" viewBox="0 0 1600 900" role="img" aria-labelledby="title desc">
  <title id="title">ARC Dock desktop usage context</title>
  <desc id="desc">A top-down concept scene shows ARC Dock beside a laptop, notebook, phone, and a removable charging puck.</desc>
  <rect width="1600" height="900" fill="#d8d7d1"/>
  <path d="M0 180H1600M0 540H1600" stroke="#c5c4be" stroke-width="2"/>
  <g transform="translate(90 100)"><rect width="720" height="480" rx="28" fill="#171717"/><rect x="32" y="30" width="656" height="382" rx="15" fill="#efefeb"/><path d="M260 454H460" stroke="#60605d" stroke-width="12" stroke-linecap="round"/></g>
  <g transform="translate(955 138) rotate(7 250 170)"><rect width="500" height="340" rx="18" fill="#f4f0e8"/><path d="M52 0V340" stroke="#f26b46" stroke-width="8"/><g stroke="#c9c5bc"><path d="M82 78H452M82 124H452M82 170H452M82 216H452M82 262H452"/></g></g>
  <g transform="translate(490 560) rotate(-5 340 120)"><rect x="0" y="74" width="680" height="200" rx="92" fill="#171717"/><path d="M168 98L258-54H396L456 102Z" fill="#bfc0bc"/><rect x="292" y="-62" width="130" height="254" rx="36" fill="#fff" transform="rotate(8 357 65)"/><circle cx="546" cy="160" r="66" fill="#ffa81c" stroke="#9f43d1" stroke-width="18"/><path d="M56 172H258" stroke="#f26b46" stroke-width="9" stroke-linecap="round"/></g>
  <g transform="translate(1190 620)"><circle cx="110" cy="110" r="92" fill="#171717"/><circle cx="110" cy="110" r="67" fill="#ffa81c" stroke="#9f43d1" stroke-width="18"/><path d="M194 120C300 148 268 272 366 288" fill="none" stroke="#171717" stroke-width="12" stroke-linecap="round"/></g>
  <g font-family="Arial, Helvetica, sans-serif"><text x="64" y="842" fill="#171717" font-size="18" font-weight="700">DESK CONTEXT / CONCEPT VISUALIZATION</text><text x="1262" y="842" fill="#6f6f6a" font-size="14">WORK / DOCK / MOVE</text></g>
</svg>
