<svg xmlns="http://www.w3.org/2000/svg" viewBox="0 0 1600 1000" role="img" aria-labelledby="title desc">
  <title id="title">ARC Dock final form views</title>
  <desc id="desc">Top, side, front, and three-quarter views show the selected final form and its main functional zones.</desc>
  <rect width="1600" height="1000" fill="#f2f1ed"/>
  <g font-family="Arial, Helvetica, sans-serif"><text x="64" y="72" fill="#171717" font-size="18" font-weight="700">FINAL FORM / MULTIPLE VIEWS</text><text x="1390" y="72" fill="#6f6f6a" font-size="14">ARC / 03</text></g>
  <line x1="64" y1="104" x2="1536" y2="104" stroke="#d9d9d4"/>
  <g transform="translate(64 145)" font-family="Arial"><rect width="716" height="350" fill="#fff"/><text x="24" y="38" fill="#6f6f6a" font-size="13" font-weight="700">TOP VIEW</text><rect x="75" y="104" width="566" height="170" rx="82" fill="#171717"/><rect x="110" y="139" width="232" height="70" rx="35" fill="#363636"/><circle cx="524" cy="189" r="62" fill="#ffa81c" stroke="#9f43d1" stroke-width="15"/></g>
  <g transform="translate(820 145)" font-family="Arial"><rect width="716" height="350" fill="#fff"/><text x="24" y="38" fill="#6f6f6a" font-size="13" font-weight="700">SIDE VIEW</text><rect x="70" y="220" width="576" height="92" rx="43" fill="#171717"/><path d="M190 235L294 65H438L500 235Z" fill="#bfc0bc"/><rect x="330" y="48" width="117" height="220" rx="32" fill="#f7f7f5" transform="rotate(8 388 158)"/></g>
  <g transform="translate(64 535)" font-family="Arial"><rect width="716" height="350" fill="#fff"/><text x="24" y="38" fill="#6f6f6a" font-size="13" font-weight="700">FRONT VIEW</text><rect x="75" y="197" width="566" height="120" rx="58" fill="#171717"/><path d="M230 215L300 75H420L486 215Z" fill="#bfc0bc"/><path d="M118 258H304" stroke="#f26b46" stroke-width="7" stroke-linecap="round"/></g>
  <g transform="translate(820 535)" font-family="Arial"><rect width="716" height="350" fill="#171717"/><text x="24" y="38" fill="#8e8e8e" font-size="13" font-weight="700">DETAIL / INTERFACE ZONE</text><circle cx="360" cy="190" r="112" fill="#0b0b0b" stroke="#555" stroke-width="8"/><circle cx="360" cy="190" r="82" fill="#ffa81c" stroke="#9f43d1" stroke-width="22"/><circle cx="360" cy="190" r="40" fill="#171717"/><text x="274" y="323" fill="#fff" font-size="16">REMOVABLE PUCK</text></g>
  <text x="64" y="950" fill="#6f6f6a" font-family="Arial" font-size="13">Selected form balances a low horizontal base with one clear vertical gesture.</text>
</svg>
