<svg xmlns="http://www.w3.org/2000/svg" viewBox="0 0 1200 760" role="img" aria-labelledby="title desc">
  <title id="title">Amazon storefront homepage mockup</title>
  <desc id="desc">A complete Amazon storefront homepage mockup with category navigation, hero promotion, product zones, and brand story modules.</desc>
  <rect width="1200" height="760" fill="#f8f5f0"/>
  <rect x="90" y="72" width="1020" height="616" rx="30" fill="#fff" stroke="#ded8cf"/>
  <rect x="130" y="116" width="940" height="54" rx="12" fill="#111"/>
  <rect x="150" y="206" width="900" height="170" rx="22" fill="#f2e7fa"/>
  <rect x="184" y="246" width="280" height="34" rx="8" fill="#111"/>
  <rect x="184" y="300" width="210" height="14" rx="7" fill="#6b6660"/>
  <rect x="720" y="232" width="240" height="104" rx="52" fill="#ffa81c"/>
  <circle cx="810" cy="284" r="48" fill="#9f43d1" opacity=".82"/>
  <circle cx="884" cy="284" r="48" fill="#f26b46" opacity=".78"/>
  <g fill="#fff" stroke="#ded8cf">
    <rect x="150" y="418" width="190" height="132" rx="18"/>
    <rect x="370" y="418" width="190" height="132" rx="18"/>
    <rect x="590" y="418" width="190" height="132" rx="18"/>
    <rect x="810" y="418" width="190" height="132" rx="18"/>
  </g>
  <rect x="150" y="590" width="410" height="52" rx="16" fill="#fff7e4" stroke="#ead7a2"/>
  <rect x="590" y="590" width="410" height="52" rx="16" fill="#f9eeef" stroke="#efd0c7"/>
</svg>
