<svg xmlns="http://www.w3.org/2000/svg" viewBox="0 0 1200 760" role="img" aria-labelledby="title desc">
  <title id="title">AI visual system abstract interface</title>
  <desc id="desc">A premium abstract AI visual system with layered panels, grid lines, and restrained brand color accents.</desc>
  <defs>
    <linearGradient id="bg" x1="0" y1="0" x2="1" y2="1">
      <stop offset="0" stop-color="#f9f6f1"/>
      <stop offset="0.55" stop-color="#eee7f5"/>
      <stop offset="1" stop-color="#fff5e1"/>
    </linearGradient>
    <linearGradient id="brand" x1="0" y1="0" x2="1" y2="1">
      <stop offset="0" stop-color="#9f43d1"/>
      <stop offset="0.62" stop-color="#f26b46"/>
      <stop offset="1" stop-color="#ffa81c"/>
    </linearGradient>
  </defs>
  <rect width="1200" height="760" fill="url(#bg)"/>
  <g fill="none" stroke="#111" stroke-opacity=".08">
    <path d="M100 140h1000M100 260h1000M100 380h1000M100 500h1000M100 620h1000"/>
    <path d="M200 80v600M400 80v600M600 80v600M800 80v600M1000 80v600"/>
  </g>
  <rect x="118" y="112" width="420" height="240" rx="26" fill="#fff" opacity=".88"/>
  <rect x="662" y="136" width="360" height="120" rx="60" fill="url(#brand)" opacity=".92"/>
  <rect x="646" y="308" width="420" height="260" rx="32" fill="#111" opacity=".9"/>
  <circle cx="290" cy="232" r="74" fill="#9f43d1" opacity=".88"/>
  <circle cx="374" cy="232" r="74" fill="#f26b46" opacity=".72"/>
  <circle cx="458" cy="232" r="74" fill="#ffa81c" opacity=".72"/>
  <g fill="#fff" opacity=".88">
    <rect x="704" y="364" width="150" height="14" rx="7"/>
    <rect x="704" y="406" width="270" height="14" rx="7"/>
    <rect x="704" y="448" width="210" height="14" rx="7"/>
  </g>
  <path d="M166 482c120-120 212 112 338 0s216-24 322 78" fill="none" stroke="url(#brand)" stroke-width="24" stroke-linecap="round"/>
  <g fill="#111" opacity=".72">
    <rect x="168" y="402" width="220" height="16" rx="8"/>
    <rect x="168" y="434" width="310" height="12" rx="6"/>
  </g>
</svg>
