<svg xmlns="http://www.w3.org/2000/svg" viewBox="0 0 1200 760" role="img" aria-labelledby="title desc">
  <title id="title">Premium brand website mockup</title>
  <desc id="desc">A complete premium brand website screen mockup with hero typography and editorial content modules.</desc>
  <rect width="1200" height="760" fill="#f8f5f0"/>
  <rect x="92" y="72" width="1016" height="616" rx="30" fill="#fff" stroke="#ded8cf"/>
  <rect x="136" y="120" width="928" height="56" rx="28" fill="#111"/>
  <circle cx="182" cy="148" r="9" fill="#9f43d1"/>
  <circle cx="214" cy="148" r="9" fill="#f26b46"/>
  <circle cx="246" cy="148" r="9" fill="#ffa81c"/>
  <rect x="150" y="228" width="440" height="48" rx="8" fill="#111"/>
  <rect x="150" y="294" width="350" height="18" rx="9" fill="#666"/>
  <rect x="150" y="330" width="410" height="18" rx="9" fill="#b5b0a7"/>
  <rect x="150" y="390" width="150" height="46" rx="23" fill="#9f43d1"/>
  <rect x="330" y="390" width="150" height="46" rx="23" fill="none" stroke="#111"/>
  <rect x="650" y="224" width="360" height="280" rx="26" fill="#f2e7fa"/>
  <path d="M706 438c86-162 146-172 236-18" fill="none" stroke="#9f43d1" stroke-width="34" stroke-linecap="round"/>
  <circle cx="790" cy="326" r="52" fill="#f26b46" opacity=".8"/>
  <circle cx="878" cy="326" r="52" fill="#ffa81c" opacity=".75"/>
  <rect x="150" y="554" width="860" height="72" rx="16" fill="#f6f2eb" stroke="#ded8cf"/>
</svg>
